<?xml version="1.0" encoding="utf-8"?>
<svg version="1.1" width="120" height="66" xmlns="http://www.w3.org/2000/svg" xmlns:xlink="http://www.w3.org/1999/xlink" x="0px" y="0px" viewBox="0 0 120 66" style="enable-background:new 0 0 120 66;" xml:space="preserve">
  <style type="text/css">
  	.st0{fill:#e17ab4;}
  	.st1{fill:#fff;}
  </style>
  <polygon class="st0" points="5,66 27,33 5,0 0,0 22,33 0,66 "/>
  <polygon class="st0" points="49,0 29.2,30.3 26.5,26.2 44,0 "/>
  <polygon class="st0" points="49,66 29.2,35.8 26.5,39.8 44,66 "/>

	<path class="st1" d="M71.4,50c0,1.2-0.2,2.3-0.6,3.3c-0.4,1-1,1.9-1.7,2.6c-0.7,0.7-1.6,1.3-2.6,1.8c-1,0.4-2.1,0.6-3.3,0.6
		c-1.5,0-2.8-0.3-4-1c-1.2-0.7-2-1.5-2.4-2.6c0,0.3,0,0.5,0,0.8c0,0.3,0,0.5,0,0.8V58h-2.2V27.3h2.2v18c0.5-1,1.3-1.9,2.4-2.6
		c1.1-0.7,2.5-1.1,4-1.1c1.2,0,2.3,0.2,3.3,0.6c1,0.4,1.9,1,2.6,1.7s1.3,1.6,1.7,2.6C71.2,47.6,71.4,48.7,71.4,50z M69.1,50
		c0-0.9-0.1-1.7-0.4-2.5c-0.3-0.8-0.7-1.4-1.3-2c-0.5-0.5-1.2-1-1.9-1.3c-0.7-0.3-1.6-0.5-2.4-0.5c-0.9,0-1.7,0.2-2.5,0.5
		c-0.8,0.3-1.4,0.8-2,1.3c-0.6,0.5-1,1.2-1.3,1.9c-0.3,0.7-0.5,1.6-0.5,2.4s0.2,1.7,0.5,2.4c0.3,0.7,0.8,1.4,1.3,2
		c0.6,0.6,1.2,1,2,1.3c0.8,0.3,1.6,0.5,2.5,0.5c0.9,0,1.7-0.2,2.4-0.5c0.7-0.3,1.4-0.8,1.9-1.3c0.5-0.6,1-1.2,1.3-2
		C68.9,51.6,69.1,50.8,69.1,50z"/>
	<path class="st1" d="M78,58h-2.2V27.3H78V58z"/>
	<path class="st1" d="M82.4,50c0-1.1,0.2-2.2,0.7-3.3c0.4-1,1-1.9,1.8-2.7c0.8-0.8,1.7-1.4,2.7-1.8c1-0.4,2.1-0.7,3.3-0.7
		c1.2,0,2.3,0.2,3.3,0.7c1,0.4,1.9,1,2.7,1.8c0.7,0.8,1.3,1.7,1.8,2.7s0.6,2.1,0.6,3.3s-0.2,2.2-0.6,3.2s-1,1.9-1.8,2.6
		c-0.8,0.7-1.6,1.3-2.7,1.8c-1,0.4-2.1,0.7-3.3,0.7c-1.2,0-2.3-0.2-3.3-0.6s-1.9-1-2.7-1.7c-0.8-0.7-1.4-1.6-1.8-2.6
		C82.6,52.3,82.4,51.2,82.4,50z M84.6,50c0,0.9,0.2,1.7,0.5,2.4c0.3,0.7,0.8,1.4,1.3,2c0.6,0.6,1.2,1,2,1.3c0.7,0.3,1.5,0.5,2.4,0.5
		s1.7-0.2,2.4-0.5c0.8-0.3,1.4-0.8,2-1.3c0.6-0.6,1-1.2,1.3-2c0.3-0.7,0.5-1.5,0.5-2.4s-0.2-1.7-0.5-2.4c-0.3-0.8-0.8-1.4-1.3-2
		c-0.6-0.6-1.2-1-2-1.3c-0.8-0.3-1.6-0.5-2.4-0.5s-1.7,0.2-2.4,0.5c-0.7,0.3-1.4,0.8-2,1.3c-0.6,0.6-1,1.2-1.3,2
		C84.8,48.3,84.6,49.1,84.6,50z"/>
	<path class="st1" d="M102.4,50c0-1.2,0.2-2.3,0.6-3.3c0.4-1,1-1.9,1.8-2.7c0.7-0.8,1.6-1.4,2.6-1.8s2.1-0.6,3.2-0.6
		c0.9,0,1.7,0.1,2.4,0.4s1.4,0.5,1.9,0.9c0.5,0.4,1,0.8,1.4,1.2c0.4,0.4,0.6,0.8,0.8,1.2c0-0.5,0-1.1,0.1-1.6c0-0.6,0.1-1.1,0.1-1.7
		h2v15.7c0,1.1-0.2,2.2-0.5,3.2c-0.3,1-0.9,1.8-1.6,2.5c-0.7,0.7-1.6,1.3-2.6,1.7s-2.3,0.6-3.8,0.6c-1.5,0-2.8-0.3-4-0.8
		c-1.1-0.6-2.3-1.4-3.5-2.5l1.4-1.5c1,1,2,1.7,3,2.1c0.9,0.4,1.9,0.6,2.9,0.6c1.1,0,2.1-0.1,2.9-0.4c0.8-0.3,1.4-0.7,1.9-1.2
		c0.5-0.5,0.9-1.1,1.1-1.8s0.4-1.5,0.4-2.3c0-0.2,0-0.4,0-0.6s0-0.5,0-0.9c0-0.1,0-0.2,0-0.4c0-0.2,0-0.4,0-0.6s0-0.4,0-0.6
		s0-0.3,0-0.3c-0.5,1-1.3,1.9-2.4,2.7c-1.1,0.8-2.5,1.1-4.1,1.1c-1.2,0-2.3-0.2-3.3-0.6c-1-0.4-1.9-1-2.6-1.8
		c-0.7-0.7-1.3-1.6-1.7-2.6S102.4,51.2,102.4,50z M104.6,49.9c0,0.9,0.2,1.7,0.5,2.4c0.3,0.7,0.8,1.4,1.3,2c0.6,0.6,1.2,1,2,1.3
		c0.8,0.3,1.6,0.5,2.5,0.5s1.7-0.2,2.5-0.5c0.8-0.3,1.4-0.8,2-1.3c0.6-0.6,1-1.2,1.3-2c0.3-0.7,0.5-1.6,0.5-2.4
		c0-0.9-0.2-1.7-0.5-2.4c-0.3-0.7-0.8-1.4-1.3-2c-0.6-0.6-1.2-1-2-1.3c-0.8-0.3-1.6-0.5-2.5-0.5s-1.7,0.2-2.5,0.5
		c-0.8,0.3-1.4,0.8-2,1.3c-0.6,0.5-1,1.2-1.3,1.9C104.7,48.2,104.6,49.1,104.6,49.9z"/>
</svg>
